<svg width="49" height="49" viewBox="0 0 49 49" fill="none" xmlns="http://www.w3.org/2000/svg">
<rect x="0.164062" y="0.102051" width="48" height="48" rx="8" fill="#F9F9F9"/>
<path d="M12.0308 34.7016H16.4778V23.9019L10.125 19.1373V32.7958C10.125 33.8504 10.9794 34.7016 12.0308 34.7016Z" fill="#4285F4"/>
<path d="M31.7246 34.7016H36.1716C37.2261 34.7016 38.0774 33.8472 38.0774 32.7958V19.1373L31.7246 23.9019" fill="#34A853"/>
<path d="M31.7246 15.6434V23.902L38.0774 19.1374V16.5963C38.0774 14.2395 35.387 12.8958 33.5034 14.3093" fill="#FBBC04"/>
<path d="M16.4785 23.9019V15.6433L24.1018 21.3608L31.7252 15.6433V23.9019L24.1018 29.6194" fill="#EA4335"/>
<path d="M10.125 16.5963V19.1374L16.4778 23.902V15.6434L14.699 14.3093C12.8122 12.8958 10.125 14.2395 10.125 16.5963Z" fill="#C5221F"/>
</svg>
