<svg width="48" height="48" viewBox="0 0 48 48" fill="none" xmlns="http://www.w3.org/2000/svg">
<rect width="48" height="48" rx="8" fill="#006699"/>
<path d="M18.4787 33.7265V20.7603H14.1728V33.7265H18.4791H18.4787ZM16.3266 18.9903C17.8279 18.9903 18.7625 17.9947 18.7625 16.7504C18.7344 15.4777 17.8279 14.5099 16.3552 14.5099C14.8815 14.5099 13.9189 15.4777 13.9189 16.7503C13.9189 17.9946 14.8532 18.9902 16.2984 18.9902H16.3263L16.3266 18.9903ZM20.8621 33.7265H25.1677V26.4864C25.1677 26.0994 25.1958 25.7113 25.3095 25.4349C25.6207 24.6603 26.3291 23.8585 27.5189 23.8585C29.0766 23.8585 29.7001 25.0475 29.7001 26.7907V33.7265H34.0056V26.2921C34.0056 22.3096 31.8816 20.4563 29.0487 20.4563C26.7261 20.4563 25.7061 21.7556 25.1393 22.6406H25.168V20.7608H20.8623C20.9185 21.9772 20.862 33.727 20.862 33.727L20.8621 33.7265Z" fill="white"/>
</svg>
