<svg width="48" height="48" viewBox="0 0 48 48" fill="none" xmlns="http://www.w3.org/2000/svg">
<g clip-path="url(#clip0_214_2328)">
<path d="M48 0H0V48H48V0Z" fill="url(#paint0_linear_214_2328)"/>
<path d="M10.5623 22.6763C18.6154 19.1765 23.9853 16.8692 26.6722 15.7544C34.3438 12.5715 35.9379 12.0186 36.9769 12.0002C37.2054 11.9964 37.7163 12.0528 38.0473 12.3207C38.3268 12.5469 38.4037 12.8525 38.4405 13.067C38.4773 13.2814 38.5231 13.77 38.4867 14.1517C38.0709 18.5089 36.2721 29.0826 35.357 33.9626C34.9697 36.0276 34.2073 36.72 33.4691 36.7877C31.8649 36.935 30.6467 35.7302 29.093 34.7142C26.6617 33.1245 25.2882 32.1348 22.9282 30.5835C20.2008 28.7907 21.9688 27.8053 23.5232 26.195C23.9299 25.7735 30.9981 19.3606 31.1349 18.7788C31.152 18.7061 31.1679 18.4348 31.0063 18.2916C30.8448 18.1484 30.6064 18.1974 30.4344 18.2364C30.1905 18.2916 26.3065 20.8524 18.7823 25.9187C17.6798 26.6739 16.6812 27.0418 15.7865 27.0225C14.8002 27.0013 12.9029 26.4662 11.4925 26.0089C9.76249 25.448 8.38754 25.1514 8.50727 24.1987C8.56963 23.7025 9.25465 23.1951 10.5623 22.6763Z" fill="white"/>
</g>
<rect x="0.5" y="0.5" width="47" height="47" rx="7.5" stroke="black" stroke-opacity="0.1"/>
<defs>
<linearGradient id="paint0_linear_214_2328" x1="48" y1="-1.43051e-06" x2="-4.29153e-06" y2="48" gradientUnits="userSpaceOnUse">
<stop stop-color="#36ABE7"/>
<stop offset="1" stop-color="#299DD5"/>
</linearGradient>
<clipPath id="clip0_214_2328">
<rect width="48" height="48" rx="8" fill="white"/>
</clipPath>
</defs>
</svg>
